<svg width="651" height="747" viewBox="0 0 651 747" fill="none" xmlns="http://www.w3.org/2000/svg">
<g clip-path="url(#clip0_2_254)">
<path d="M374.062 202.52C399.43 204.213 424.341 208.32 448.285 217.219C476.2 227.601 500.12 243.563 518.263 267.551C532.114 285.846 540.788 306.497 546.027 328.71C546.227 329.573 546.276 330.485 547.003 331.11C546.432 332.471 546.725 333.822 547.062 335.169C551.699 354.252 559.888 372.292 571.201 388.346C577.472 397.249 584.594 405.521 592.467 413.046C597.994 418.325 604.176 422.847 609.884 427.906C620.538 437.341 629.71 447.982 636.769 460.417C643.356 472.023 647.81 484.361 648.966 497.641C650.527 515.54 647.205 532.342 635.452 546.598C626.061 557.989 613.718 564.419 599.277 566.907C583.954 569.547 569.03 567.341 554.341 562.858C543.33 559.506 532.943 554.73 522.849 549.276C519.049 547.222 515.844 544.285 512.604 541.47C503.374 533.542 495.153 524.717 488.992 514.15C484.508 506.461 481.474 498.314 481.635 489.235C481.698 485.605 482.484 485.015 486.104 485.63C500.686 488.108 515.302 490.172 530.162 489.65C532.841 489.579 535.504 489.207 538.1 488.542C542.251 487.459 543.818 485.337 544.047 481.039C544.418 473.975 543.188 467.13 541.412 460.344C538.856 450.553 535.319 441.156 530.143 432.419C529.013 430.635 527.744 428.943 526.347 427.36C525.902 426.775 525.338 426.291 524.694 425.938C524.049 425.585 523.338 425.371 522.605 425.311C518.702 423.359 515.161 420.725 511.336 418.583C496.866 410.46 481.723 404.201 465.248 401.508C461.156 400.876 457.014 400.618 452.875 400.737C451.675 400.762 450.436 400.937 449.29 400.347C449.186 400.278 449.104 400.182 449.051 400.069C448.999 399.956 448.978 399.831 448.992 399.708C450.231 398.864 450.348 397.756 450.06 396.337C448.389 387.797 444.894 379.718 439.815 372.651C439.063 371.487 437.981 370.574 436.708 370.026C431.997 364.649 426.427 360.09 420.223 356.537C412.919 352.415 404.801 349.944 396.44 349.297C395.513 349.219 394.859 349.361 394.566 350.351C394.415 350.873 394.283 351.507 393.478 351.39C392.8 350.824 393.137 349.849 392.469 349.019C392.054 350.307 392.322 351.532 391.981 352.659C391.005 356.161 389.185 359.093 385.804 360.703C383.98 361.577 382.877 362.762 382.433 364.787C380.789 372.105 371.759 376.222 366.022 373.568C364.7 372.958 363.817 373.324 362.895 374.461C357.655 380.92 350.21 381.652 343.839 376.413C343.165 375.856 342.375 374.617 341.799 376.51C340.414 379.979 338.428 383.16 337.106 386.658C331.954 400.259 332.023 413.895 336.697 427.599C337.184 429.097 338.204 430.253 339.024 431.536C338.092 432.751 338.448 433.882 339.087 435.122C344.175 444.981 351.571 452.655 361.041 458.368C369.955 463.819 380.191 466.726 390.639 466.774C398.039 466.907 405.402 465.702 412.373 463.217C413.051 462.974 413.725 462.627 414.491 462.852C415.418 464.315 415.286 466.145 416.198 467.608C417.306 470.321 419.745 471.511 422.428 470.628C424.273 469.968 425.875 468.766 427.024 467.179C429.32 464.224 431.331 461.059 433.029 457.724C435.717 452.616 440.498 450.245 445.226 447.738C445.875 447.396 446.616 447.25 447.275 447.83C447.226 449.543 445.914 450.518 444.957 451.67C439.006 458.846 433.249 466.154 429.317 474.702C428.387 476.681 427.636 478.74 427.073 480.854C426.063 484.693 425.833 488.508 427.843 492.157C427.751 494.299 428.892 495.236 431.195 494.758C433.146 494.358 434.81 493.343 436.503 492.372C437.064 492.05 437.581 491.65 438.123 491.294C438.664 490.938 439.376 490.211 440.074 490.689C440.923 491.265 440.357 492.152 440.186 492.918C440.015 493.684 439.698 494.465 439.45 495.241C438.956 496.88 438.847 498.611 439.132 500.3C439.742 504.461 444.011 506.71 448.777 505.378C453.695 503.998 457.481 500.768 461.198 497.499C465.187 493.937 468.911 490.089 472.341 485.986C473.302 484.874 474.635 484.151 476.09 483.951C477.545 483.751 479.024 484.087 480.249 484.898C480.536 485.052 480.77 485.288 480.921 485.575C481.072 485.863 481.134 486.19 481.098 486.513C479.913 502.041 486.952 514.496 496.285 525.893C503.321 534.518 511.473 542.168 520.527 548.642C521.015 548.988 521.761 549.203 521.576 550.071C520.264 550.559 520.6 551.867 520.434 552.793C517.8 567.01 515.985 581.348 513.956 595.652C509.853 624.597 505.628 653.522 496.846 681.515C492.656 694.888 487.44 707.826 479.493 719.485C472.77 729.345 464.496 737.39 453.149 741.795C447.616 743.937 441.806 744.542 435.981 745.079C420.369 746.542 404.729 747.489 389.029 746.635C371.632 745.659 355.508 741.161 342.053 729.56C322.134 712.407 298.521 704.05 273.109 699.283C254.17 695.732 235.183 695.697 216.078 696.176C194.885 696.702 173.673 697.244 152.563 694.502C146.597 693.727 140.689 692.609 135.098 690.277C133.37 689.573 131.716 688.698 130.161 687.667C125.043 684.218 123.765 679.554 126.156 673.875C127.922 669.68 130.985 666.406 133.786 662.943C139.977 658.332 142.762 651.722 144.123 644.497C145.68 636.203 144.406 628.012 142.875 619.85C141.001 609.878 138.376 600.048 137.206 589.954C135.864 578.45 135.63 566.971 138.923 555.677C139.515 553.654 140.366 551.715 141.455 549.91C149.397 536.66 155.071 522.463 159.018 507.549C159.345 506.31 159.447 504.954 160.589 504.076C162.178 503.518 163.902 503.468 165.521 503.934C165.886 504.116 166.2 504.387 166.434 504.722C166.667 505.057 166.813 505.446 166.858 505.852C168.912 515.462 174.327 523.2 180.493 530.542C184.255 535.016 188.167 539.363 191.617 544.095C193.127 546.111 194.434 548.271 195.519 550.544C198.286 556.496 196.983 562.253 191.939 566.546C189.321 568.73 186.594 570.779 183.767 572.684C180.605 574.82 177.627 577.218 174.864 579.85C169.341 585.187 167.872 591.783 168.697 599.043C170.058 610.985 176.449 620.069 185.577 627.368C195.583 635.374 207.145 639.325 219.893 640.33C227.367 640.921 234.607 640.047 241.847 638.418C249.882 636.71 256.824 632.861 263.191 627.778C266.521 625.166 269.334 621.954 271.484 618.308C275.387 611.649 275.875 604.858 272.006 597.979C271.27 596.711 270.306 595.589 269.162 594.671C267.698 593.471 267.84 592.456 269.264 591.349C270.366 590.508 271.35 589.523 272.192 588.422C275.431 584.158 274.411 579.231 269.699 576.713C266.918 575.225 264.127 573.659 260.8 573.786C257.439 573.386 254.17 572.415 250.677 573.362C245.257 574.825 242.993 579.806 245.73 584.748C247.643 588.197 250.975 589.7 254.39 591.09C255.673 591.613 257.048 591.852 258.336 592.354C258.824 592.554 259.483 592.754 259.502 593.437C259.522 594.12 258.98 594.413 258.473 594.686C256.726 595.555 254.893 596.24 253.004 596.73C246.716 598.472 240.378 598.784 233.978 597.179C230.236 595.442 226.265 594.188 222.806 591.837C213.239 585.343 207.379 576.44 205.443 565.034C204.755 560.99 205.555 557.077 207.335 553.428C208.614 550.808 210.57 548.764 213.458 547.808C214.643 547.56 215.875 547.66 217.005 548.095C221.318 549.476 225.699 549.378 230.104 548.7C234.509 548.022 237.978 545.807 241.169 542.973C246.379 538.343 249.692 532.43 252.555 526.171C256.946 516.628 260.873 506.939 263.288 496.694C265.069 489.128 265.796 481.502 263.957 473.809C262.151 466.271 258 460.237 252.248 455.148C247.813 451.245 243.052 447.689 238.827 443.513C232.709 437.473 230.148 430.375 231.689 421.842C232.177 419.125 232.612 416.383 233.363 413.739C236.778 401.674 234.797 390.321 229.367 379.262C225.181 370.802 220.527 362.591 217.024 353.81C214.717 347.99 214.883 347.312 219.308 342.926C220.4 341.843 221.684 340.999 222.679 339.789C220.705 340.874 218.913 342.26 217.366 343.897C216.824 344.463 216.322 345.326 215.38 345.043C214.439 344.76 214.253 343.731 214.068 342.867C213.161 338.494 212.651 334.048 212.546 329.583C211.79 305.644 211.936 281.694 211.99 257.745C211.976 257.175 212.047 256.607 212.2 256.057C212.658 254.877 213.609 254.106 214.551 253.33C226.68 243.432 239.64 234.598 253.287 226.927C258.206 224.106 263.283 221.569 268.494 219.331C268.83 219.326 269.161 219.42 269.444 219.602C269.727 219.785 269.95 220.047 270.084 220.356C270.42 221.446 270.523 222.594 270.386 223.727C269.899 231.982 269.616 240.241 269.089 248.491C268.83 252.613 268.557 256.745 268.489 260.877C268.445 263.561 268.216 266.244 268.001 268.888C267.859 270.522 268.489 271.469 270.289 271.591C287.691 272.776 305.005 272.332 322.085 268.43C332.603 266.024 342.624 262.365 351.537 256.072C365.139 246.466 372.027 233.304 372.92 216.736C373.14 212.584 372.676 208.486 372.764 204.359C372.788 203.515 372.32 202.212 374.062 202.52Z" fill="#6100FF"/>
<path d="M165.834 504.456L160.467 504.529C159.824 504.951 159.057 505.144 158.291 505.076C146.227 505.237 134.162 505.203 122.097 505.076C119.233 505.047 116.467 504.29 114.657 501.705C114.457 500.241 115.633 500.466 116.394 500.383C117.599 500.251 118.833 500.197 119.946 499.709C121.425 499.117 122.638 498.005 123.356 496.583C124.075 495.16 124.25 493.524 123.848 491.982C123.401 490.09 122.602 488.299 121.492 486.703C120.97 485.937 119.858 485.059 120.546 484.191C121.326 483.215 122.497 484.142 123.409 484.483C125.055 485.154 126.758 485.674 128.498 486.035C129.853 486.346 131.277 486.129 132.479 485.43C133.401 484.849 133.942 484.132 133.152 483.049C134.615 477.126 132.093 472.243 128.883 467.647C124.283 461.061 118.267 455.851 112.047 450.86C110.018 449.235 107.929 447.689 105.88 446.098C105.149 445.533 104.129 445.079 104.417 443.825C104.678 443.632 104.982 443.504 105.302 443.451C105.623 443.399 105.952 443.423 106.261 443.523C112.579 444.849 118.326 447.157 122.36 452.587C124.45 455.385 127.067 457.746 130.064 459.539C133.332 461.525 137.089 460.817 138.626 458.036C138.826 457.593 138.934 457.113 138.943 456.626C140.114 452.236 138.299 448.513 136.089 444.967C130.264 435.668 122.038 428.989 112.623 423.574C110.818 422.54 108.676 422.081 107.222 420.437C107.622 419.144 108.871 419.247 109.808 418.973C116.326 417.022 122.902 415.251 129.269 412.792C135.406 410.421 141.465 407.938 146.778 403.923C147.89 403.106 148.823 402.07 149.52 400.879C150.227 399.635 150.427 398.439 149.266 397.361C148.154 394.761 145.905 393.736 143.377 393.146C138.328 391.965 133.191 392.273 128.117 392.658C116.862 393.517 105.773 395.585 94.728 397.869C93.3962 398.147 92.0302 398.581 90.7081 397.766C89.4738 394.049 88.2687 390.321 88.6639 386.311C86.366 374.5 84.0878 362.684 81.7558 350.878C81.2833 348.265 81.3448 345.583 81.9364 342.994C84.2293 339.369 87.6882 338.34 91.7569 338.35C117.184 338.385 142.612 338.394 168.039 338.374C176.459 338.374 181.699 342.628 183.436 351.058C186.509 366.016 189.383 381.018 192.334 396C198.683 428.199 205.025 460.398 211.361 492.596C212.488 498.343 211.278 501.173 206.253 504.554C205.37 504.977 204.397 505.178 203.418 505.139C192.637 505.139 181.86 505.256 171.078 505.086C170.471 505.137 169.861 505.137 169.254 505.086C168.097 505.11 166.878 505.237 165.834 504.456Z" fill="#FF007A"/>
<path d="M88.6832 386.331L90.981 397.683C90.5419 398.932 89.337 398.864 88.3759 399.117C85.1072 399.991 81.78 400.679 78.6967 402.162C78.2136 401.955 77.6915 401.855 77.1661 401.868C76.6406 401.882 76.1243 402.008 75.6525 402.24C67.4359 405.803 59.9283 410.817 53.489 417.041C48.6738 421.666 44.2196 426.589 40.5119 432.165C38.6726 434.931 37.3311 437.751 37.0286 441.112C35.9895 452.714 36.3943 464.164 40.8924 475.092C43.6732 481.849 47.981 487.318 55.255 489.728C60.2458 491.396 65.3147 491.333 70.408 490.25C74.7168 489.405 78.9006 488.015 82.8582 486.113C84.8828 485.103 86.4488 485.41 88.2246 486.718C94.1765 491.108 100.289 495.255 107.139 498.182C108.787 498.874 110.478 499.456 112.203 499.924C113.037 500.158 114.003 500.178 114.515 501.08C116.881 503.481 119.814 504.403 123.116 504.398C133.921 504.398 144.727 504.398 155.535 504.398C156.51 504.398 157.486 504.461 158.462 504.495C159.184 505.129 158.75 505.856 158.584 506.525C154.818 521.61 148.879 536.066 140.953 549.442C140.138 550.813 139.923 552.662 138.216 553.442C137.455 552.467 136.728 553.34 136.064 553.554C119.599 558.921 102.753 561.624 85.4341 560.385C61.7192 558.697 40.5899 550.627 23.427 533.767C-4.79084 506.037 -7.76681 465.867 15.8456 434.112C26.6273 419.622 40.5997 408.919 56.2942 400.313C66.637 394.665 77.4794 389.984 88.6832 386.331Z" fill="#6100FF"/>
<path d="M202.496 98.8054C197.837 88.3116 198.857 78.369 205.375 68.9533C206.311 66.2896 208.414 64.6064 210.556 63.0355C215.515 59.2948 221.546 57.246 227.758 57.191C229.533 57.191 230.099 56.3811 230.475 54.8297C232.654 45.8824 237.877 39.3451 246.145 35.2178C252.068 32.4906 258.22 31.4515 264.645 32.9736C266.274 33.359 267.289 32.9102 268.465 31.7149C274.446 25.6264 281.559 22.109 290.301 21.987C302.986 21.8163 312.255 27.329 318.539 38.1547C320.002 40.6915 320.046 40.7306 322.559 39.4182C326.196 37.5957 330.109 36.3858 334.14 35.8373C335.821 35.498 337.558 35.5531 339.214 35.9983C341.078 37.2619 341.736 39.3255 342.629 41.2136C347.927 52.6929 351.264 64.7626 353.264 77.2225C354.631 85.454 355.467 93.7647 355.767 102.103C355.872 103.154 355.779 104.214 355.494 105.231C354.865 106.367 353.64 106.47 352.591 106.806C343.551 109.734 336.668 115.368 331.56 123.286C331.038 124.091 330.657 125.052 329.53 125.238C328.247 124.399 328.315 122.969 328.218 121.75C327.808 116.383 327.998 111.017 330.272 105.982C331.042 104.269 330.872 103.504 328.871 102.918C318.319 99.8299 310.996 92.9658 306.601 82.9939C305.727 81.0132 304.957 80.7546 302.986 81.5303C286.828 87.9115 269.611 80.7888 262.664 64.8406C261.781 62.8111 260.815 62.616 258.961 63.2892C250.532 66.3205 242.778 70.9709 236.134 76.9786C223.22 88.6189 215.249 103.104 211.395 119.944C209.958 126.034 209.303 132.282 209.443 138.537C209.477 139.8 209.76 141.157 208.858 142.293C207.106 142.781 206.389 141.371 205.56 140.342C201.532 135.451 199.227 129.371 199.002 123.039C198.776 116.708 200.642 110.478 204.311 105.314C204.637 104.955 204.813 104.486 204.804 104.001C204.795 103.517 204.601 103.054 204.262 102.708C203.291 101.552 202.901 100.176 202.496 98.8054Z" fill="black"/>
<path d="M374.062 202.52C372.959 202.778 373.398 203.544 373.437 204.252C373.774 210.16 374.003 216.053 373.179 221.966C370.866 238.553 362.187 250.818 347.927 259.287C337.15 265.683 325.329 268.922 313.045 270.874C301.293 272.771 289.467 273.064 277.602 272.723C274.85 272.645 272.099 272.367 269.347 272.235C267.884 272.162 267.181 271.635 267.279 269.996C267.929 259.227 268.523 248.457 269.06 237.685C269.357 231.83 269.547 226.005 269.777 220.166C270.396 219.448 271.24 219.536 272.031 219.629C284.652 221.024 296.77 219.243 308.225 213.667C316.333 209.733 323.625 204.304 329.72 197.665C334.926 192.011 339.102 185.688 342.736 178.966C342.968 178.356 343.398 177.84 343.956 177.502C345.024 177.268 345.79 177.99 346.639 178.38C353.137 181.508 359.928 183.225 367.193 182.673C367.905 182.62 368.656 182.464 369.144 183.249C370.491 188.908 372.027 194.524 372.896 200.285C373.018 201.163 373.14 202.085 374.062 202.52Z" fill="#F8BEB4"/>
<path d="M355.089 105.323C354.601 86.2577 351.947 67.558 345.293 49.5852C343.585 44.9652 341.878 40.3159 338.902 36.2666C337.214 34.6909 336.219 32.6126 334.945 30.7392C324.89 15.9766 310.913 7.80977 293.214 6.05835C289.599 5.70221 285.969 6.72671 282.412 7.60486C272.704 10.01 264.362 14.874 257.234 21.787C253.924 25.0344 251.034 28.6845 248.633 32.6516C247.941 33.7492 247.164 34.7915 246.311 35.769C237.876 40.1159 232.636 46.9459 230.772 56.2982C230.524 57.5569 230.036 57.8691 228.875 57.8496C219.23 57.6983 211.478 61.5915 205.37 68.9533C210.512 42.121 222.313 19.9331 248.301 7.80978C259.522 2.57992 271.494 0.491863 283.779 0.262569C295.136 0.0674246 306.513 -0.225281 317.773 1.95058C347.815 7.72684 366.656 25.8557 375.96 54.5468C380.35 68.0166 382.082 81.9157 382.39 96.0149C382.39 97.0638 382.312 98.1273 382.809 99.1079C383.112 102.167 383.424 105.231 382.614 108.27C381.668 109.148 380.785 108.426 379.955 108.08C372.759 105.07 365.319 104.108 357.645 105.523C356.801 105.694 355.909 105.977 355.089 105.323Z" fill="#8C1F43"/>
<path d="M355.089 105.323C364.495 103.157 373.55 104.221 382.273 108.289C384.811 108.691 387.095 110.058 388.649 112.105C392.376 115.52 395.967 119.013 398.558 123.408C401.919 129.005 403.847 135.345 404.17 141.865C404.493 148.386 403.202 154.885 400.41 160.786C397.617 166.688 393.411 171.808 388.165 175.694C382.919 179.579 376.794 182.109 370.335 183.059C369.935 183.122 369.535 183.2 369.135 183.269C360.148 184.191 351.801 182.156 343.961 177.79C343.199 177.774 342.464 177.508 341.868 177.034C331.486 169.56 325.525 159.617 324.573 146.713C324.053 140.164 325.159 133.588 327.793 127.57C328.213 126.594 328.54 125.579 329.623 125.13C334.804 116.222 342.039 109.753 351.879 106.387C352.947 105.977 354.03 105.665 355.089 105.323Z" fill="#FF007A"/>
<path d="M145.051 333.652C162.046 306.118 183.132 281.331 207.585 260.141C208.936 261.146 208.56 262.634 208.56 263.946C208.599 278.323 208.243 292.73 208.697 307.068C209.034 317.679 208.541 328.339 210.009 338.916C210.522 342.628 211.473 346.233 212.092 349.917C212.067 350.649 211.788 351.349 211.302 351.898C206.17 359.172 202.428 367.192 198.618 375.178C198.193 376.061 198.042 377.31 196.564 377.13C195.642 376.188 195.588 374.929 195.335 373.754C193.432 364.528 191.783 355.254 189.885 346.033C188.266 338.14 183.816 334.476 175.766 334.466C166.673 334.466 157.579 334.466 148.485 334.466C147.29 334.447 145.992 334.744 145.051 333.652Z" fill="#6100FF"/>
<path d="M211.57 350.619C209.316 342.526 208.492 334.237 208.292 325.87C207.804 305.019 207.711 284.168 207.711 263.317C207.711 262.263 207.628 261.214 207.584 260.16C207.663 246.539 207.692 232.913 207.828 219.287C207.95 207.53 208.194 195.773 208.385 184.015C209.414 182.156 210.824 181.917 213.205 183.195C213.246 183.329 213.247 183.471 213.209 183.605C213.171 183.74 213.095 183.86 212.99 183.952C211.853 184.698 211.917 185.903 211.922 187.011C211.975 198.944 211.312 210.862 211.375 222.8C211.522 251.228 211.151 279.66 211.556 308.083C211.717 319.304 211.263 330.656 213.327 341.838C214.454 348.077 216.423 354.135 219.181 359.845C222.913 367.514 226.987 375.007 230.455 382.808C233 388.456 234.43 394.542 234.666 400.732C234.836 405.772 233.578 410.719 232.436 415.627C231.624 418.856 231.084 422.147 230.821 425.467C230.412 431.897 232.695 437.175 237.051 441.776C240.801 445.607 244.828 449.155 249.101 452.392C258 459.354 263.332 468.213 264.298 479.6C264.83 485.844 263.967 491.938 262.396 497.914C258.62 512.277 253.458 526.112 245.091 538.494C241.571 543.844 236.176 547.682 229.968 549.252C225.894 550.383 221.84 550.115 217.815 549.017C216.322 548.613 214.863 548.12 213.288 548.305C209.931 549.081 207.736 551.344 206.365 554.281C204.731 557.784 204.009 561.541 204.833 565.414C208.248 581.353 217.878 591.554 233.402 596.291C233.729 596.389 234.012 596.457 234.158 596.779C242.803 598.194 251.185 597.613 259.527 593.432C257.38 592.744 255.624 592.232 253.902 591.622C250.389 590.388 247.267 588.602 245.213 585.329C241.798 579.933 244.418 573.942 250.628 572.615C254.043 571.879 257.361 572.508 260.693 573.103C263.362 573.493 265.791 574.567 268.172 575.762C273.743 578.626 275.002 584.441 271.07 589.388C270.246 590.39 269.313 591.298 268.289 592.095C267.45 592.764 267.469 593.393 268.289 594.047C275.119 599.691 275.426 611.688 270.323 619.489C264.811 627.924 256.917 633.149 247.882 636.92C245.88 637.774 243.807 638.449 241.686 638.935C239.095 640.169 236.266 640.374 233.5 640.647C210.541 642.896 190.729 636.822 175.869 618.294C171.382 612.675 168.626 605.873 167.936 598.716C166.96 589.393 170.375 581.914 177.81 576.201C182.123 572.888 186.831 570.122 190.953 566.546C196.876 561.419 197.949 556.116 194.11 549.266C190.27 542.417 184.694 536.675 179.669 530.625C174.351 524.219 169.497 517.546 167.097 509.418C166.609 507.788 166.248 506.125 165.833 504.476L169.312 504.432C170.2 505.676 170.136 507.213 170.556 508.598C173.078 516.892 178.313 523.512 183.792 529.981C188.465 535.494 193.305 540.88 196.964 547.164C201.662 555.208 200.774 561.99 194.066 568.478C190.134 572.279 185.387 575.02 181.001 578.235C176.01 581.889 172.42 586.392 171.537 592.681C170.992 596.809 171.433 601.007 172.824 604.931C176.513 615.844 183.816 623.748 193.622 629.461C198.36 632.318 203.523 634.403 208.916 635.637C222.679 638.657 236.188 638.296 249.092 632.11C256.41 628.592 262.805 623.777 267.089 616.61C269.252 613.028 270.06 608.79 269.367 604.663C268.816 601.072 267.206 598.047 263.864 596.218C263.628 596.063 263.354 595.974 263.071 595.962C262.788 595.95 262.508 596.015 262.259 596.15C259.054 597.862 255.527 598.74 252.17 600.077C245.299 601.876 238.066 601.753 231.26 599.721C214.58 594.818 204.609 583.49 200.681 566.673C200.193 564.507 200.32 562.321 200.33 560.131C200.352 559.739 200.411 559.35 200.506 558.97C200.892 556.978 201.467 555.027 202.223 553.145C205.34 546.017 210.561 543.387 218.176 545.09C219.996 545.5 221.772 546.066 223.664 546.168C230.851 546.481 236.012 542.753 240.379 537.645C244.652 532.64 247.267 526.664 249.858 520.692C254.073 510.989 257.927 501.178 259.542 490.63C260.336 485.658 260.293 480.587 259.415 475.629C257.917 467.374 253.029 461.368 246.916 456.139C243.462 453.211 239.91 450.338 236.476 447.357C228.733 440.6 225.318 432.16 226.806 421.901C227.108 419.316 227.616 416.76 228.323 414.256C232.046 402.318 230.08 391.043 224.65 380.062C221.054 372.783 216.844 365.821 213.717 358.293C213.034 356.64 212.517 354.927 211.765 353.303C211.373 352.462 211.304 351.507 211.57 350.619Z" fill="#8C1F43"/>
<path d="M213.297 183.547C211.58 182.893 209.882 182.571 208.385 184.035C207.931 182.522 206.511 182.947 205.531 182.756C197.707 181.281 190.513 177.475 184.893 171.836C179.272 166.197 175.489 158.991 174.039 151.163C172.264 141.832 173.912 132.174 178.681 123.959C183.45 115.745 191.02 109.525 200.003 106.44C200.847 106.148 201.676 105.826 202.511 105.518C203.257 104.928 204.018 104.416 204.95 105.157C202.228 109.548 200.15 114.178 199.74 119.418C199.089 127.805 201.592 135.11 207.248 141.332C207.658 141.714 208.102 142.057 208.575 142.357C209.551 142.893 209.375 143.874 209.424 144.728C210.09 157.102 213.401 169.189 219.132 180.176C219.654 181.176 220.352 182.166 219.469 183.322C217.434 183.825 215.405 184.693 213.297 183.547Z" fill="#FF007A"/>
<path d="M145.05 333.652L176.454 333.739C183.928 333.739 188.875 337.745 190.363 345.072C192.461 355.391 194.485 365.728 196.554 376.051C196.653 376.44 196.774 376.823 196.915 377.198C198.095 378.037 197.622 379.476 198.139 380.559C201.515 397.527 204.867 414.506 208.194 431.497C211.663 449.113 215.024 466.754 218.688 484.327C220.205 491.596 217.644 496.821 212.39 501.295C211.349 502.204 210.22 503.006 209.019 503.69C208.17 504.178 207.282 504.666 206.321 503.89C212.068 500.392 211.307 495.26 210.194 489.742C204.911 463.578 199.798 437.341 194.583 411.133C191.744 396.8 188.888 382.472 186.016 368.148C184.806 362.055 183.723 355.952 182.401 349.858C180.972 343.272 175.659 339.125 168.917 339.125C143.167 339.125 117.415 339.125 91.6591 339.125C88.005 339.125 84.7266 339.794 82.541 343.092C82.4873 343.17 82.1458 343.057 81.936 343.033C82.2873 340.94 83.7459 339.618 85.3022 338.452C89.3076 335.491 93.7471 333.749 98.8306 333.749C114.247 333.739 129.649 333.681 145.05 333.652Z" fill="#8C1F43"/>
<path d="M522.854 424.95C524.45 424.14 525.294 425.438 526.143 426.277C530.582 430.633 533.251 436.131 535.69 441.722C540.033 451.534 543.003 461.898 544.515 472.521C544.946 475.664 545.016 478.846 544.725 482.005C544.408 485.522 542.627 487.859 539.164 488.894C536.283 489.755 533.304 490.247 530.299 490.357C517.083 490.899 504.052 489.147 491.046 487.128C488.963 486.806 486.865 486.513 484.816 486.03C482.967 485.596 482.401 486.181 482.323 488.04C482.049 494.809 483.437 501.543 486.367 507.652C494.334 524.605 506.857 537.899 522.244 547.91C536.392 557.092 552.341 562.79 569.079 565.795C582.866 568.273 596.599 568.366 609.923 563.443C632.364 555.15 644.79 538.636 647.976 515.306C651.201 491.699 643.678 470.755 630.413 451.562C622.924 440.693 613.689 431.497 603.41 423.271C574.577 400.152 555.199 370.914 546.423 334.876C546.159 333.793 544.374 331.949 547.018 331.115C547.882 331.559 547.828 332.471 547.994 333.222C556.482 369.285 575.733 398.488 604.473 421.593C620.856 434.765 634.389 450.182 642.848 469.633C650.259 486.708 652.986 504.339 648.605 522.663C642.458 548.369 622.041 566.01 595.702 568.786C577.285 570.737 559.868 566.834 542.876 560.175C535.559 557.268 528.439 553.888 521.561 550.057C505.213 538.163 490.919 524.493 483.201 505.237C480.86 499.499 479.92 493.286 480.459 487.113C480.581 485.757 480.23 485.342 478.996 484.957C476.039 484.039 474.039 484.635 471.961 487.23C467.238 493.123 461.896 498.485 455.569 502.729C452.583 504.729 449.461 506.457 445.694 506.408C441.387 506.354 438.42 503.354 438.264 499.061C438.157 496.158 439.328 493.577 440.347 490.479C437.679 492.289 435.508 493.992 432.917 494.953C431.02 495.655 429.102 495.997 427.429 494.465C426.585 493.694 425.887 492.787 427.58 492.104C431.093 493.567 433.869 491.816 436.488 489.894C439.821 487.454 442.977 484.83 445.416 481.361C449.061 476.185 452.885 471.116 457.418 466.657C458.619 465.443 459.968 464.384 461.433 463.505C462.218 463.047 463.179 462.661 463.848 463.578C464.516 464.496 464.048 465.452 463.213 466.11C455.895 471.897 450.666 479.439 445.543 487.088C443.888 489.407 442.583 491.957 441.669 494.655C441.173 496.121 440.957 497.666 441.03 499.212C441.078 500.402 441.573 501.529 442.417 502.369C443.262 503.209 444.392 503.698 445.582 503.739C448.143 503.934 450.378 502.993 452.466 501.68C457.872 498.206 462.75 493.972 466.95 489.108C468.668 487.157 470.4 485.205 472.073 483.254C473.234 481.878 474.615 481.478 476.415 481.849C487.636 484.137 498.965 485.854 510.36 486.996C517.859 487.757 525.386 488.196 532.924 487.586C534.707 487.429 536.463 487.045 538.149 486.445C541.032 485.435 541.91 484.122 542.105 481.024C542.564 473.706 541.061 466.632 539.154 459.641C536.514 449.972 533.143 440.615 527.611 432.126C526.436 430.368 525.052 428.76 523.489 427.335C522.805 426.711 521.888 426.057 522.854 424.95Z" fill="#020101"/>
<path d="M138.216 553.423C138.517 552.611 138.872 551.821 139.279 551.057C148.236 536.601 154.325 520.965 158.457 504.525H160.433C156.467 521.204 149.964 537.175 141.153 551.881C138.713 555.955 138.225 560.785 137.591 565.439C135.864 578.416 137.65 591.164 140.284 603.848C142.114 612.659 144.241 621.411 145.163 630.393C146.348 642.043 144.675 652.927 136.381 661.928C135.718 662.645 135.142 663.806 133.81 662.962C133.522 662.245 133.864 661.733 134.342 661.235C142.684 652.546 144.363 641.945 143.187 630.5C142.094 619.816 139.284 609.454 137.333 598.926C134.801 585.173 133.644 571.415 137.074 557.628C137.411 556.228 137.83 554.808 138.216 553.423Z" fill="#030201"/>
<path d="M388.668 112.105L382.297 108.289C382.687 105.245 381.877 102.128 382.829 99.1177C385.926 102.832 387.945 107.323 388.668 112.105Z" fill="#040304"/>
<path d="M204.96 105.138L202.521 105.499V98.8006C203.443 100.264 204.316 101.772 205.306 103.191C205.877 104.026 205.804 104.611 204.96 105.138Z" fill="#8B2446"/>
<path d="M522.854 424.95C522.759 425.262 522.77 425.597 522.887 425.902C523.003 426.207 523.219 426.464 523.498 426.633C526.972 429.248 529.148 432.882 531.055 436.658C537.334 449.079 541.52 462.149 542.857 476.063V476.307C543.393 485.415 541.564 487.571 532.436 488.264C520.776 489.152 509.243 487.776 497.744 486.098C490.514 485.064 483.328 483.747 476.147 482.415C474.498 482.112 473.498 482.415 472.415 483.727C467.834 489.333 462.926 494.636 457.227 499.139C454.608 501.212 451.861 503.11 448.622 504.081C443.07 505.73 439.352 502.398 440.43 496.729C441.003 494.02 442.054 491.434 443.533 489.094C447.995 481.622 453.313 474.697 459.379 468.457C460.504 467.283 461.788 466.273 463.194 465.457C463.74 465.14 464.101 464.705 463.799 464.071C463.414 463.252 462.774 463.461 462.155 463.798C460.61 464.697 459.197 465.807 457.959 467.096C453.251 471.731 449.378 477.048 445.47 482.342C442.284 486.645 438.152 489.913 433.522 492.543C431.488 493.694 429.429 494.079 427.595 492.089C424.995 489.411 425.453 486.093 426.004 482.966C427.497 474.507 432.064 467.476 437.03 460.72C440.006 456.67 443.275 452.836 446.412 448.904C446.704 448.533 447.143 448.24 447.085 447.674C447.182 446.62 448.451 446.611 448.909 445.513C445.007 446.489 441.899 448.596 438.664 450.484C436.006 452.05 434.108 454.358 432.551 456.978C431.088 459.417 429.683 461.89 428.161 464.296C427.648 465.125 427.079 465.919 426.458 466.672C422.96 470.765 420.501 471.062 416.013 467.896C414.603 466.535 414.51 464.74 414.403 462.954C414.018 462.439 413.844 461.797 413.915 461.159C414.662 455.158 417.218 449.85 420.384 444.82C424.497 438.288 429.205 432.243 435.318 427.404C436.475 426.391 437.776 425.555 439.177 424.92C439.952 424.579 440.24 424.164 439.089 424.203C436.24 424.291 433.439 423.754 430.61 423.647C420.95 423.276 411.388 422.184 402.026 419.686C397.879 418.583 394.015 416.954 391.864 412.856C391.235 409.797 393.22 408.172 395.372 406.806C398.348 404.923 401.714 403.879 405.129 403.089C408.529 402.311 411.968 401.719 415.432 401.318C421.521 400.459 427.629 400.025 433.771 399.757C437.806 399.581 441.831 399.186 445.87 399.322C446.987 399.357 448.158 399.181 449.129 399.966C453.481 400.23 457.837 399.903 462.204 400.43C472.824 401.703 482.938 404.733 492.778 408.767C503.333 413.114 513.411 418.536 522.854 424.95Z" fill="#F8BEB4"/>
<path d="M438.845 425.477C428.926 432.687 421.706 442.064 416.706 453.192C415.569 455.724 415.013 458.407 414.422 461.09C413.841 461.773 413.073 462.271 412.212 462.525C398.484 467.496 384.736 467.584 371.071 462.427C357.167 457.178 346.629 448.001 339.746 434.756C339.258 433.839 338.594 432.951 338.868 431.799C337.837 431.225 337.046 430.301 336.638 429.194C330.784 413.436 331.13 397.903 338.15 382.579C339.16 380.374 340.321 378.242 341.414 376.076C342.551 375.93 343.156 376.827 343.917 377.383C350.449 382.145 357.445 381.53 362.943 375.608C364.085 374.368 365.29 373.929 366.846 374.442C373.862 376.749 381.585 371.397 383.224 365.016C383.57 363.655 384.146 362.435 385.502 361.713C387.281 360.806 388.851 359.538 390.111 357.988C391.372 356.439 392.294 354.644 392.82 352.717C392.971 352.176 393.108 351.6 393.679 351.302C393.776 348.414 395.293 348.473 397.757 348.736C409.731 349.925 421.043 354.794 430.136 362.674C432.659 364.831 435.186 366.958 436.966 369.812C443.031 377.891 447.612 386.653 449.373 396.712C449.534 397.654 449.934 398.62 449.212 399.513C449.149 399.648 449.113 399.793 449.104 399.942C443.938 400.171 438.767 400.147 433.595 400.43C427.39 400.791 421.213 401.406 415.023 401.932C413.52 399.742 412.856 397.195 411.954 394.751C410.217 390.209 406.529 387.506 402.411 385.521C399.013 383.856 395.274 383.005 391.49 383.034C387.706 383.064 383.981 383.973 380.609 385.69C377.237 387.408 374.311 389.886 372.062 392.93C369.813 395.973 368.303 399.498 367.651 403.225C366.749 407.714 367.213 412.37 368.983 416.593C369.33 417.593 369.986 418.458 370.857 419.061C372.466 420.525 373.686 422.369 375.174 423.964C383.731 433.141 398.508 433.277 407.953 424.452C408.773 423.686 409.475 422.754 410.646 422.442C415.413 422.501 420.086 423.476 424.828 423.828C428.604 424.101 432.405 424.052 436.161 424.628C437.103 424.798 438.132 424.608 438.845 425.477Z" fill="#F8B543"/>
<path d="M213.122 183.615C212.91 206.671 212.702 229.726 212.497 252.779C212.497 253.755 212.595 254.73 212.648 255.682C212.648 265.185 212.531 274.684 212.619 284.187C212.751 298.97 212.936 313.752 213.253 328.529C213.301 334.035 213.955 339.519 215.205 344.882C216.263 344.624 216.62 343.819 217.156 343.267C218.599 341.723 220.207 340.342 221.952 339.15C222.63 338.716 223.498 337.686 224.255 338.74C225.011 339.794 223.82 340.247 223.123 340.691C220.81 342.253 218.942 344.277 217.073 346.316C216.098 347.399 215.898 348.429 216.346 349.849C218.038 354.936 220.146 359.875 222.649 364.616C224.713 368.665 226.713 372.754 228.875 376.754C235.705 389.399 237.758 402.547 233.431 416.49C232.308 420.065 231.78 423.799 231.87 427.545C232.021 433.258 234.465 438.015 238.344 442.118C241.871 445.855 245.842 449.094 249.896 452.206C263.825 462.9 267.947 476.995 264.532 493.748C261.644 507.959 256.102 521.195 249.238 533.879C245.891 540.07 241.183 545.1 234.602 547.998C233.138 548.652 231.65 549.388 229.948 549.227C238.949 545.924 244.857 539.329 248.974 530.991C254.868 519.034 260.137 506.813 262.634 493.616C264.557 483.566 264.283 473.745 259.073 464.54C256.175 459.422 251.931 455.543 247.477 451.855C243.793 448.796 240.037 445.83 236.661 442.41C230.885 436.556 228.943 429.599 230.431 421.632C231.382 416.529 232.695 411.49 233.519 406.372C234.792 398.439 232.997 390.887 230.021 383.565C227.382 377.086 224.118 370.88 220.752 364.792C214.258 352.976 211.482 340.306 211.204 326.943C210.326 285.529 210.531 244.115 210.848 202.7C210.892 196.939 211.121 191.177 211.16 185.41C211.194 183.937 211.59 183.274 213.122 183.615Z" fill="#010202"/>
<path d="M314.748 292.744C308.817 292.681 302.908 292.028 297.107 290.793L296.619 290.686C294.926 290.32 293.614 289.515 294.106 287.544C294.56 285.734 295.98 285.553 297.599 285.924C302.191 286.988 306.869 287.641 311.577 287.876C332.989 288.851 350.913 280.914 366.115 266.278C380.17 252.75 390.02 236.436 397.186 218.424C398.401 215.38 399.465 214.414 401.089 215.248C403.499 216.497 402.45 218.429 401.777 220.127C393.669 240.48 382.389 258.716 365.675 273.201C351.098 285.792 334.204 292.657 314.748 292.744Z" fill="#FEFEFE"/>
<path d="M429.112 717.88C417.12 717.88 405.895 714.465 394.962 709.86C375.696 701.713 358.309 690.321 341.087 678.637C329.33 670.651 317.758 662.406 305.732 654.8C296.921 649.234 287.574 647.541 277.348 648.419C250.145 650.761 223.654 656.869 197.159 663.025C191.792 664.274 186.426 665.67 181.084 667.001C180.775 667.098 180.46 667.177 180.142 667.236C179.44 667.328 178.542 667.68 178.269 666.714C177.996 665.748 178.908 665.548 179.601 665.357C181.403 664.866 183.208 664.391 185.016 663.933C209.604 657.83 234.29 652.141 259.366 648.409C266.435 647.355 273.553 646.77 280.685 646.263C290.233 645.58 298.736 648.141 306.805 653.166C318.324 660.352 329.364 668.231 340.565 675.885C353.85 684.96 367.256 693.844 381.546 701.313C393.679 707.655 406.173 713.07 419.823 715.27C426.619 716.368 433.405 716.422 440.152 714.865C440.313 714.826 440.464 714.763 440.64 714.729C441.43 714.563 442.406 714.241 442.64 715.348C442.845 716.324 441.894 716.436 441.177 716.617C438.663 717.28 436.092 717.7 433.498 717.871C432.044 717.958 430.575 717.88 429.112 717.88Z" fill="#020101"/>
<path d="M280.353 420.93C280.715 426.223 280.978 430.828 281.329 435.424C285.047 482.566 294.414 528.439 312.601 572.264C325.837 604.15 343.414 633.246 368.446 657.43C380.93 669.573 395.185 679.75 410.724 687.614C411.529 688.019 412.622 688.131 413.008 689.35C411.866 689.755 411.124 688.955 410.344 688.565C388.468 677.583 369.929 662.381 354.059 643.848C332.325 618.479 317.27 589.285 305.873 558.092C295.531 529.796 288.671 500.597 284.232 470.813C282.007 455.869 280.462 440.86 279.597 425.789C279.524 424.574 279.553 423.35 279.573 422.135C279.583 421.954 279.797 421.779 280.353 420.93Z" fill="#0C0604"/>
<path d="M589.476 432.653C579.788 432.941 571.123 429.814 563.288 424.315C558.707 421.1 554.316 417.617 549.813 414.285C543.818 409.841 537.368 406.333 529.953 404.904C521.547 403.284 513.702 405.279 506.048 408.558C505.096 408.963 503.73 410.612 502.984 408.928C502.32 407.436 504.32 407.245 505.306 406.782C519.844 399.952 533.768 401.186 547.125 409.992C552.697 413.661 557.785 417.959 563.166 421.876C572.172 428.443 582.134 431.633 593.311 430.789C593.799 430.755 594.287 430.731 594.775 430.731C595.38 430.731 595.95 430.853 595.97 431.609C595.989 432.365 595.453 432.624 594.853 432.638C593.048 432.677 591.262 432.653 589.476 432.653Z" fill="#030201"/>
<path d="M268.196 219.8C267.459 219.551 266.581 219.546 266.245 218.639C266.376 216.311 268.162 217.077 269.25 217.263C273.423 217.917 277.649 218.179 281.871 218.043C296.965 217.809 309.967 212.135 321.529 202.754C329.735 196.099 335.843 187.762 340.785 178.502C341.16 177.795 341.478 177.014 342.351 176.741L343.971 177.77C333.34 199.168 317.197 213.901 293.472 219.38C286.462 221 279.324 221.151 272.202 220.307C271.401 220.214 270.591 220.219 269.786 220.175C269.323 219.852 268.755 219.718 268.196 219.8Z" fill="#030302"/>
<path d="M338.868 431.799C348.288 450.767 363.422 462.003 384.385 465.091C393.854 466.481 403.148 465.262 412.134 461.895C412.891 461.612 413.657 461.359 414.423 461.09C414.423 461.71 414.423 462.33 414.423 462.949C409.402 465.418 404.002 466.545 398.523 467.208C373.818 470.199 348.996 456.709 338.028 434.37C337.565 433.468 335.692 431.672 338.868 431.799Z" fill="#030201"/>
<path d="M393.659 351.302C392.864 356.391 390.269 360.206 385.58 362.426C384.551 362.913 384.2 363.577 383.936 364.577C381.741 372.871 374.394 377.149 366.178 374.978C365.295 374.744 364.568 374.383 363.861 375.408C359.031 382.428 348.078 383.384 341.824 376.325C341.699 376.224 341.561 376.14 341.414 376.076C341.414 375.461 341.063 374.72 341.902 374.373C342.741 374.027 343.058 374.739 343.517 375.159C350.142 381.237 357.606 380.55 362.885 373.295C363.685 372.197 364.349 372.168 365.519 372.612C373.291 375.539 380.697 371.368 382.199 363.201C382.453 361.816 383.126 361.362 384.224 360.864C388.946 358.737 391.518 355.108 391.708 349.858C391.737 348.995 391.22 347.551 392.757 347.639C393.996 347.712 393.464 349.039 393.571 349.853C393.63 350.332 393.63 350.819 393.659 351.302Z" fill="#040201"/>
<path d="M241.652 638.964C248.482 636.496 255.058 633.637 260.752 629.012C265.089 625.489 268.787 621.489 271.26 616.401C274.714 609.302 273.826 598.969 267.201 593.925C266.191 593.159 266.508 592.769 267.299 592.134C268.39 591.29 269.406 590.351 270.333 589.329C274.265 584.826 273.382 579.411 268.289 576.303C265.913 574.84 263.269 574.059 260.683 573.113C264.765 573.342 268.665 574.882 271.802 577.504C275.544 580.562 275.739 585.251 272.436 589.154C271.245 590.559 268.806 591.676 268.728 593.032C268.65 594.388 271.123 595.603 272.114 597.12C276.075 603.204 276.217 609.673 273.28 616.147C269.484 624.514 262.62 629.905 254.8 634.198C250.687 636.408 246.428 638.442 241.652 638.964Z" fill="#050505"/>
<path d="M234.144 596.764C217.742 592.5 207.721 582.055 204.213 565.512C203.718 563.202 203.699 560.815 204.158 558.497C204.617 556.179 205.544 553.98 206.882 552.032C208.345 549.793 210.336 548.13 213.273 548.286C207.623 551.593 204.686 558.292 206.126 565.473C209.097 580.265 217.781 590.266 231.89 595.603C232.67 595.915 233.719 595.789 234.144 596.764Z" fill="#050504"/>
<path d="M416.008 467.891C416.93 467.54 417.511 468.179 418.194 468.594C420.531 470.013 422.292 469.862 424.37 468.013C426.492 466.112 428.19 463.785 429.351 461.183C432.996 452.992 439.621 448.318 447.588 445.113C448.339 444.81 449.295 443.903 449.91 445.064C450.524 446.225 449.236 446.43 448.534 446.855C448.046 447.138 447.558 447.406 447.07 447.679C441.133 450.118 435.81 453.25 432.722 459.339C430.903 462.934 428.888 466.501 425.892 469.316C423.033 471.984 419.721 472.243 416.852 470.082C416.072 469.511 415.467 468.945 416.008 467.891Z" fill="#050303"/>
<path d="M449.202 399.513C447.852 389.648 443.977 380.3 437.952 372.373C437.386 371.617 436.513 370.963 436.977 369.812C438.069 369.182 438.611 369.987 439.152 370.685C445.441 378.754 449.285 387.882 451.046 397.932C451.31 399.566 450.71 400.03 449.202 399.513Z" fill="#050302"/>
<path d="M78.682 401.932C79.9992 400.279 82.0434 400.21 83.8241 399.635C86.1756 398.874 88.5904 398.322 90.981 397.683C96.9572 396.605 102.924 395.463 108.915 394.463C118.355 392.892 127.81 391.443 137.435 391.717C140.362 391.8 143.265 392.097 146.012 393.219C147.963 394.019 149.592 395.171 149.914 397.473C149.68 400.61 147.739 402.63 145.319 404.264C139.343 408.299 132.659 410.865 125.936 413.285C120.053 415.402 114.047 417.144 107.998 418.734C107.31 418.915 106.534 418.915 106.002 419.525C106.28 420.12 107.032 419.939 107.373 420.398C118.631 425.186 128.358 432.974 135.493 442.913C137.088 445.067 138.343 447.452 139.216 449.987C139.957 452.197 140.265 454.377 139.328 456.631C138.806 457.373 138.025 457.841 137.347 458.412C134.991 460.393 133.171 460.49 130.459 458.9C126.892 456.822 124.155 453.782 121.506 450.748C118.808 447.593 115.247 445.294 111.261 444.132C108.323 443.195 105.317 442.486 102.27 442.01C102.758 443.083 103.939 443.069 104.168 443.962C108.827 447.713 113.608 451.333 118.116 455.26C123.809 460.222 129.112 465.579 132.4 472.555C133.654 475.02 134.263 477.763 134.171 480.527C134.127 481.312 134.293 482.185 133.42 482.688C132.4 485.274 130.654 486.059 127.527 485.191C122.425 483.759 117.657 481.33 113.501 478.044C108.583 474.199 103.978 469.965 98.7136 466.042C98.7673 467.018 99.3429 467.335 99.782 467.681C104.802 471.682 109.69 475.838 114.593 479.971C117.578 482.502 120.07 485.561 121.946 488.996C124.57 493.743 122.56 499.007 117.969 499.573C115.707 499.867 113.409 499.674 111.227 499.007C104.051 496.777 97.894 492.699 91.786 488.523C90.5028 487.665 89.2697 486.735 88.0929 485.737C86.5268 484.391 84.9949 484.332 83.1703 485.249C78.1951 487.673 72.8773 489.318 67.4028 490.128C57.4992 491.699 48.4054 487.523 43.4537 478.848C39.5898 472.077 38.0873 464.652 37.4238 456.958C36.9359 451.26 37.2871 445.635 37.8775 439.981C38.057 438.035 38.7047 436.162 39.7654 434.522C49.0591 420.193 61.2313 409.211 77.0331 402.415C77.5432 402.141 78.1048 401.977 78.682 401.932Z" fill="#F8BEB4"/>
<path d="M206.321 503.89C213.449 502.344 219.62 493.089 218.254 486.191C211.366 451.426 204.498 416.658 197.652 381.886C197.598 381.484 197.574 381.078 197.579 380.672C198.335 376.559 200.623 373.066 202.296 369.343C204.613 364.37 207.26 359.557 210.219 354.937C210.707 354.166 211.005 353.093 212.244 353.132C216.147 363.406 221.952 372.758 226.528 382.711C231.246 392.956 232.183 403.381 229.026 414.236C227.651 418.835 227.024 423.625 227.167 428.423C227.445 436.371 231.768 442.083 237.315 447.138C240.242 449.811 243.291 452.407 246.448 454.826C257.986 463.671 262.591 475.385 260.322 489.562C257.649 506.276 251.38 521.731 242.403 536.045C239.423 540.774 234.901 544.328 229.602 546.105C226.824 547.078 223.819 547.201 220.972 546.456C219.024 545.893 217.031 545.502 215.015 545.285C209.546 544.91 205.867 547.412 203.418 552.115C202.357 554.304 201.578 556.619 201.101 559.004C200.316 558.57 200.316 557.77 200.379 557.082C200.794 552.657 198.681 549.11 196.476 545.593C193.061 540.158 188.67 535.474 184.577 530.571C179.001 523.902 173.605 517.131 171.22 508.53C170.859 507.222 170.244 505.935 170.878 504.534C181.761 504.495 192.643 504.455 203.526 504.412C204.477 504.393 205.487 504.603 206.321 503.89Z" fill="#6100FF"/>
<path d="M78.682 401.932C78.3308 402.82 77.438 402.908 76.7306 403.22C60.9337 410.094 48.9226 421.271 39.8338 435.731C39.328 436.466 38.9777 437.296 38.8044 438.171C37.1895 449.811 37.4091 461.334 41.273 472.589C41.4291 473.053 41.6194 473.502 41.7999 473.95C46.9273 486.537 56.5235 491.708 69.8225 489.074C74.7616 488.069 79.5498 486.429 84.068 484.195C85.434 483.527 86.361 483.634 87.5514 484.552C93.6741 489.269 100.031 493.636 107.119 496.807C110.095 498.138 113.144 499.246 116.486 499.183C121.414 499.061 123.887 495.455 122.068 490.855C120.184 486.108 116.662 482.561 112.881 479.351C108.193 475.336 103.378 471.472 98.6307 467.52C98.0111 467.003 96.7768 466.545 97.6257 465.462C98.4746 464.379 99.2357 465.506 99.8455 466.003C104.441 469.75 108.968 473.58 113.579 477.307C117.595 480.498 122.174 482.909 127.078 484.415C129.551 485.205 131.878 485.332 133.449 482.698C134.879 483.049 134.757 483.927 134.132 484.883C133.157 486.381 131.693 486.884 129.956 486.835C126.712 486.766 123.863 485.371 120.858 484.127C120.584 484.913 121.243 485.278 121.55 485.727C122.805 487.417 123.759 489.31 124.37 491.323C125.717 496.426 122.497 500.783 117.199 501.08C116.311 501.129 115.418 501.119 114.53 501.134C105.002 499.3 97.1329 494.084 89.5711 488.45C86.7757 486.366 84.6925 485.922 81.4092 487.435C74.6572 490.538 67.4954 492.382 59.9092 491.474C51.4546 490.46 45.6246 485.742 41.7218 478.405C38.3458 472.062 36.9066 465.169 36.248 458.095C35.6761 451.785 35.8103 445.431 36.6481 439.151C36.7961 437.615 37.2825 436.13 38.0726 434.804C47.4102 420.017 59.6605 408.533 75.833 401.513C76.7404 401.093 78.0527 399.771 78.682 401.932Z" fill="#020201"/>
<path d="M170.873 504.52C172.483 513.521 177.342 520.809 183.006 527.693C187.846 533.547 193.041 539.133 197.237 545.524C199.935 549.632 201.691 553.959 201.101 558.989L200.969 559.892C200.042 565.941 195.495 569.161 191.085 572.479C187.841 574.918 184.382 577.035 181.22 579.582C174.586 584.948 172.151 591.91 173.668 600.145C176.152 613.63 184.44 622.88 195.929 629.617C199.449 631.634 203.163 633.293 207.014 634.569C207.848 634.856 209.072 634.9 208.921 636.33C195.612 632.768 184.338 626.129 176.683 614.376C172.19 607.473 169.663 599.935 171.117 591.505C172.024 586.256 174.883 582.236 179.001 579.045C183.118 575.855 187.587 572.903 191.748 569.659C195.603 566.654 198.676 563.043 199.203 557.857C199.569 554.306 198.505 551.12 196.812 548.1C193.129 541.529 188.06 536.011 183.245 530.308C177.722 523.766 172.449 517.077 169.946 508.686C169.531 507.305 168.912 505.93 169.312 504.417L170.873 504.52Z" fill="#030303"/>
<path d="M107.373 420.393C106.397 420.174 104.787 421.549 104.446 419.935C104.104 418.32 105.983 418.608 106.944 418.354C116.433 415.832 125.814 412.987 134.854 409.128C136.869 408.27 138.845 407.318 140.777 406.294C144.68 404.24 148.363 401.957 149.909 397.469C151.641 397.956 151.051 399.215 150.661 400.225C149.812 402.435 148.051 403.913 146.187 405.24C141.177 408.797 135.537 411.094 129.849 413.275C122.506 416.11 114.896 418.1 107.373 420.393Z" fill="#030303"/>
<path d="M104.188 443.952C103.953 443.893 103.627 443.908 103.51 443.762C102.831 442.913 100.416 443.762 101.134 441.864C101.67 440.459 103.309 441.556 104.392 441.747C106.378 442.088 108.295 442.679 110.281 443.171C114.88 444.26 119.017 446.777 122.097 450.362C124.211 452.923 126.579 455.262 129.166 457.344C132.801 460.129 134.25 460.081 137.777 457.066C137.986 456.881 138.235 456.747 138.503 456.671C138.771 456.595 139.053 456.58 139.328 456.626C139.577 459.344 136.162 461.861 132.908 461.32C130.737 460.91 128.741 459.85 127.185 458.28C124.6 455.841 122.063 453.309 119.643 450.689C115.457 446.157 109.944 444.81 104.188 443.952Z" fill="#030303"/>
<path d="M342.341 176.741C335.775 190.172 326.564 201.3 313.719 209.164C299.941 217.594 285.047 220.546 269.07 217.868C268.094 217.702 266.767 216.892 266.235 218.639C261.952 216.99 257.483 215.897 253.263 213.989C243.169 209.433 234.973 202.529 227.748 194.289C224.645 190.748 222.523 186.523 219.508 182.942C219.308 180.922 217.927 179.434 217.108 177.702C211.885 166.618 208.985 154.583 208.585 142.337C208.17 123.189 212.863 105.499 223.899 89.7068C232.953 76.7542 244.828 67.4116 259.874 62.2403C261.459 61.6939 262.166 61.7524 262.849 63.5575C269.216 80.2082 287.764 87.77 303.966 80.3448C305.469 79.6569 306.03 79.6667 306.674 81.3742C310.87 92.4925 318.787 99.6006 330.286 102.611C331.926 103.04 332.052 103.455 331.369 104.957C328.442 111.436 327.598 118.154 329.623 125.091C324.052 136.415 323.417 147.943 328.315 159.646C331.277 166.725 336.272 172.184 342.341 176.741Z" fill="#F8BEB4"/>
<path d="M402.334 143.869C402.355 146.792 401.793 149.69 400.68 152.393C399.567 155.096 397.925 157.549 395.851 159.609C393.777 161.669 391.313 163.294 388.602 164.388C385.892 165.483 382.99 166.025 380.068 165.984C367.764 165.779 358.197 156.227 358.114 143.918C358.092 140.99 358.653 138.086 359.763 135.377C360.874 132.668 362.513 130.206 364.584 128.136C366.656 126.066 369.118 124.429 371.828 123.32C374.538 122.211 377.442 121.652 380.37 121.676C392.518 121.652 402.334 131.59 402.334 143.869Z" fill="#8C1F43"/>
<path d="M212.244 353.132C206.877 360.869 202.925 369.373 198.988 377.881C198.554 378.827 198.047 379.74 197.574 380.671C197.047 379.569 197.008 378.379 196.915 377.193C200.715 369.299 204.404 361.347 209.155 353.951C209.892 352.8 210.497 351.512 211.595 350.619C211.795 351.458 212.019 352.293 212.244 353.132Z" fill="#040202"/>
<path d="M208.921 636.33C208.433 635.276 207.311 635.354 206.438 635.052C193.754 630.583 183.318 623.343 176.781 611.249C174.37 606.9 172.968 602.065 172.678 597.101C172.283 589.749 174.942 583.738 180.728 579.216C184.05 576.621 187.558 574.245 190.973 571.791C195.32 568.673 199.174 565.146 200.964 559.887C201.08 570.714 205.476 581.055 213.192 588.652C220.908 596.248 231.317 600.482 242.144 600.428C245.418 600.428 248.74 600.731 251.902 599.452C255.414 598.815 258.813 597.665 261.99 596.037C262.625 595.715 263.239 595.237 264.04 595.471C269.689 598.613 271.967 606.351 269.274 613.478C266.347 621.177 260.493 626.231 253.716 630.305C242.466 637.076 230.221 639.198 217.229 637.623C214.438 637.348 211.664 636.917 208.921 636.33Z" fill="#6100FF"/>
<path d="M252.424 575.552C257.444 574.806 262.035 576.24 266.342 578.582C270.543 580.865 270.977 584.387 267.708 587.914C266.515 589.236 265.088 590.326 263.498 591.129C259.703 590.051 255.8 589.295 252.355 587.227C250.417 586.142 248.979 584.342 248.35 582.211C247.369 578.787 248.648 576.762 252.424 575.552Z" fill="#6100FF"/>
<path d="M252.424 575.552C247.774 578.187 247.36 581.894 251.233 585.651C253.468 587.827 256.307 588.744 259.171 589.637C260.634 590.09 262.166 590.31 263.498 591.13C260.864 591.349 258.619 589.9 256.214 589.3C253.014 588.51 250.136 587.09 248.101 584.373C246.72 582.529 246.018 580.47 247.169 578.274C248.248 576.22 250.126 575.406 252.424 575.552Z" fill="#0C0C0A"/>
<path d="M264.04 595.472C260.22 597.486 256.346 599.345 251.907 599.467C255.468 598.091 259.225 597.14 262.547 595.198C262.662 595.116 262.793 595.058 262.931 595.028C263.069 594.997 263.212 594.994 263.351 595.02C263.49 595.045 263.623 595.098 263.741 595.176C263.859 595.253 263.961 595.354 264.04 595.472Z" fill="#282A24"/>
<path d="M410.125 422.959C401.46 433.629 385.024 434.59 375.296 425.042C373.598 423.319 372.031 421.472 370.608 419.515C369.354 415.334 367.842 411.275 367.973 406.733C368.114 402.164 369.577 397.733 372.184 393.978C374.791 390.222 378.431 387.303 382.663 385.574C391.474 381.935 401.328 383.808 407.929 390.312C409.422 391.775 410.642 393.561 412.505 394.649C413.149 397.151 414.798 399.303 415.013 401.967C409.837 402.854 404.602 403.518 399.65 405.416C397.211 406.348 394.835 407.367 393.167 409.524C392.47 410.432 392.107 411.551 392.137 412.695C392.137 415.095 393.503 416.529 395.494 417.622C399.094 419.573 402.958 420.735 406.949 421.569C408.071 421.788 409.466 421.593 410.125 422.959Z" fill="#6100FF"/>
<path d="M410.125 422.959C406.529 421.984 402.807 421.496 399.323 420.12C396.884 419.173 394.445 418.232 392.659 416.217C391.762 415.241 390.708 414.075 392.137 412.656C393.864 413.49 394.201 415.583 395.977 416.524C400.001 418.598 404.3 419.666 408.661 420.5C418.487 422.374 428.429 423.028 438.42 423.364C438.991 423.364 439.557 423.364 440.123 423.403C440.86 423.403 441.743 423.403 441.714 424.423C441.684 425.442 440.782 425.345 440.055 425.369C439.65 425.369 439.245 425.423 438.845 425.452C429.244 425.008 419.652 424.311 410.125 422.959Z" fill="#050403"/>
<path d="M470.112 416.471C470.453 420.749 473.746 422.813 476.244 425.496C477.986 427.365 477.84 429.516 476.454 431.531C475.21 433.331 473.727 434.946 472.507 436.78C470.439 439.839 470.487 441.864 472.756 444.776C474.449 446.952 476.415 448.909 478.122 451.089C480.435 454.07 480.43 456.524 477.483 458.724C471.112 463.481 472.78 468.33 477.278 473.062C477.766 473.589 478.357 474.038 478.844 474.594C479.171 474.955 480.084 475.243 479.42 475.877C478.84 476.424 478.445 475.619 478.059 475.292C476.189 473.722 474.618 471.828 473.42 469.701C471.336 465.798 471.668 462.383 475.054 459.637C480.025 455.568 479.313 453.738 475.312 449.352C474.054 447.972 472.834 446.557 471.673 445.098C469.482 442.327 469.497 439.415 471.419 436.531C472.361 435.117 473.463 433.809 474.517 432.473C477.249 428.979 477.166 427.623 473.912 424.667C472.224 423.12 470.595 421.54 469.897 419.266C469.624 418.422 469.248 417.593 470.112 416.471Z" fill="#130F0E"/>
<path d="M412.505 394.649C410.925 395.541 410.583 394.039 409.934 393.263C404.153 386.336 396.762 383.223 387.878 384.75C378.609 386.345 372.408 391.941 369.549 400.937C367.842 406.304 368.271 411.67 370.525 416.866C370.905 417.739 371.569 418.603 370.598 419.515C369.413 419.593 369.164 418.632 368.788 417.851C363.388 406.562 367.876 392.419 378.916 385.896C389.956 379.374 404.48 382.296 411.783 392.463C412.271 393.122 412.847 393.732 412.505 394.649Z" fill="#040201"/>
<path d="M75.5698 466.847C76.7797 465.481 78.0773 464.179 79.1848 462.734C83.0389 457.729 82.6681 454.499 77.8822 450.45C74.4135 447.523 74.1501 445.323 76.9407 441.703C78.5214 439.649 80.3118 437.746 81.8193 435.648C83.8537 432.834 83.8487 430.916 81.868 428.052C80.7654 426.457 79.3897 425.057 78.1944 423.52C75.8283 420.471 75.9015 418.227 78.6823 415.607C81.0728 413.329 83.2633 411.002 83.3414 407.153C84.8879 408.265 84.1219 409.255 83.9365 410.05C83.3121 412.714 81.3363 414.441 79.4824 416.295C77.087 418.661 76.9943 420.198 79.0677 422.857C80.2581 424.394 81.6339 425.784 82.7364 427.394C85.0342 430.716 85.0245 433.063 82.6584 436.341C81.1948 438.376 79.458 440.215 77.9066 442.196C75.3112 445.518 75.5015 447.045 78.7555 449.767C84.8147 454.87 83.3511 463.91 75.5698 466.847Z" fill="#15100F"/>
<path d="M273.051 176.287C268.879 176.463 264.757 176.039 260.888 174.404C259.99 174.033 259.126 173.582 258.307 173.058C253.917 170.179 253.034 166.525 255.707 161.998C258.245 157.802 261.699 154.235 265.811 151.563C268.665 149.655 268.918 147.757 268.094 144.733C265.655 135.727 263.547 126.643 261.303 117.588C261.179 117.201 261.078 116.807 261 116.407C260.908 115.641 260.513 114.641 261.639 114.373C262.766 114.105 262.869 115.105 263.069 115.895C264.789 122.823 266.516 129.749 268.25 136.673C269.148 140.293 269.962 143.937 270.967 147.533C271.455 149.27 271.133 150.338 269.582 151.407C265.679 154.085 262.069 157.095 259.132 160.837C254.683 166.506 255.839 170.482 262.654 172.804C267.587 174.487 272.704 174.482 277.832 174.204C278.7 174.155 279.822 173.716 279.905 175.068C279.988 176.419 278.802 176.263 277.953 176.292C276.3 176.326 274.675 176.287 273.051 176.287Z" fill="#8B603D"/>
<path d="M276.056 197.783C274.728 197.816 273.406 197.607 272.153 197.168C271.577 196.978 271.055 196.636 271.177 195.963C271.343 195.104 272.041 195.119 272.714 195.285C280.139 197.095 285.662 193.719 290.384 188.572C292.858 185.879 294.497 182.717 293.799 178.815C293.672 178.092 293.755 177.449 294.594 177.351C295.433 177.253 295.624 177.98 295.765 178.615C296.219 180.673 295.829 182.649 295.107 184.581C292.428 191.801 283.832 197.802 276.056 197.783Z" fill="#050404"/>
<path d="M242.462 139.961C240.808 139.961 239.193 139.103 237.837 137.707C235.451 135.268 234.163 132.209 233.183 129.004C233.002 128.414 232.734 127.618 233.607 127.36C234.48 127.101 234.646 127.911 234.837 128.511C235.607 130.916 236.525 133.253 238.047 135.297C241.032 139.303 244.589 139.2 247.472 135.053C249.019 132.829 249.941 130.321 250.697 127.736C250.863 127.16 251.116 126.565 251.809 126.716C252.502 126.867 252.595 127.423 252.404 128.077C251.307 131.843 249.941 135.473 246.97 138.229C245.754 139.379 244.134 140.001 242.462 139.961Z" fill="#060505"/>
<path d="M231.807 118.052C231.47 118.069 231.138 117.966 230.87 117.761C230.602 117.557 230.416 117.264 230.343 116.934C230.119 115.959 230.719 115.437 231.539 115.11C234.092 114.098 236.646 113.093 239.203 112.095C241.608 111.153 244.023 110.236 246.423 109.28C247.399 108.885 248.219 109.075 248.604 110.085C248.989 111.095 248.409 111.636 247.57 111.968C242.535 113.949 237.494 115.918 232.446 117.876C232.237 117.947 232.023 118.005 231.807 118.052Z" fill="#040303"/>
<path d="M291.057 139.961C290.127 139.959 289.207 139.768 288.354 139.398C287.501 139.028 286.733 138.487 286.096 137.81C283.627 135.317 282.305 132.204 281.315 128.916C281.119 128.258 280.963 127.521 281.832 127.336C282.7 127.15 282.807 127.96 283.003 128.57C283.647 130.754 284.593 132.838 285.813 134.761C288.911 139.386 292.711 139.41 295.784 134.814C297.091 132.762 298.092 130.53 298.756 128.189C298.951 127.545 298.985 126.496 300.019 126.809C301.053 127.121 300.595 128.033 300.395 128.682C299.351 132.097 298.038 135.414 295.409 138C294.266 139.191 292.706 139.894 291.057 139.961Z" fill="#060505"/>
<path d="M285.325 104.06C285.544 104.123 285.939 104.216 286.3 104.343C291.003 105.894 295.703 107.445 300.4 108.997C301.444 109.343 302.6 109.753 302.122 111.129C301.644 112.505 300.453 112.129 299.429 111.787C294.648 110.216 289.876 108.626 285.1 107.05C284.198 106.753 283.373 106.343 283.544 105.221C283.686 104.411 284.276 103.977 285.325 104.06Z" fill="#040303"/>
</g>
<defs>
<clipPath id="clip0_2_254">
<rect width="650.737" height="746.826" fill="white" transform="translate(0 0.130844)"/>
</clipPath>
</defs>
</svg>
